<?xml version="1.0" encoding="utf-8"?>
<!-- Generator: Adobe Illustrator 22.1.0, SVG Export Plug-In . SVG Version: 6.00 Build 0)  -->
<svg version="1.1" id="Layer_1" xmlns="http://www.w3.org/2000/svg" xmlns:xlink="http://www.w3.org/1999/xlink" x="0px" y="0px"
	 viewBox="0 0 975 281" style="enable-background:new 0 0 975 281;" xml:space="preserve">
<style type="text/css">
	.st0{fill:#EB5352;}
	.st1{fill:#645A53;}
</style>
<g id="Page-1">
	<g id="ufb-logo-coral">
		<g id="Group">
			<path id="Fill-1" class="st0" d="M336,158.4c-1.2-1-2.5-1.6-4-1.9c-8.7,8.6-19.3,17.7-28.7,23.7c-4.3,2.9-9.8,4.3-13.4,4.3
				c-8.3,0-11.9-7.9-13-20.4c-1.4-16.8-2.4-37-2.4-68.2c0-32-7.3-53.7-26.7-55.4c-0.8-0.1-1.7-0.1-2.5-0.1
				c-11.9,0-17.7,6.1-25.3,21.5c-6.5,13.3-16.6,32.6-35.4,69.1c-16.3,31.5-34.3,59.5-49.9,78.8c-4.3,5.4-7.7,9-11,11.1
				c-2.2,1.4-4.2,2.1-6.4,2.1c-6.1,0-10.6-5.2-12.1-17.1c-0.4-2.8-0.5-6.1-0.5-9.7c0-24.7,9.4-64.8,25.7-123.9
				c11.9-43,6.9-72.4-19.2-72.4c0,0-0.1,0-0.1,0c-0.1,0-0.1,0-0.2,0l0,0c-5.9,0.1-10.8,2.2-15.5,5.9c-4.6,3.6-9.3,11.5-13.6,22
				C76.9,39.8,47.2,99,0,129.5c-0.6,11.6,6,23.2,19.4,24.4c12.2,1.1,20.8-4,31.9-11.4c-0.8,3.7-1.6,7.2-2.3,10.3
				c-0.8,3.7-1.5,7-2.1,9.6c-0.8,3.9-1.4,6.4-1.5,7c-1.5,7.1-2.6,13.8-3.4,20.1C35.4,248.8,63,278,95.3,278c5.4,0,10.7-0.6,16.1-2
				c35.6-9,69.9-49.6,110.4-143.1c-0.6,10.2-0.7,19.7-0.2,28.5c2.7,53.6,24,69.7,54.1,69.7c22.8,0,44.1-11.8,54.9-26.5
				c7.9-10.4,11.2-21.8,11.2-30.8C341.7,166.8,339.5,161.2,336,158.4"/>
			<path id="Fill-4" class="st1" d="M898.9,168.6h27.9L975,47.1h-27.6l-19.9,60.5l-21-60.5h-30.8l36.6,87.8L898.9,168.6z
				 M759.8,75.9v62.3h-28.1V47.1h19.7l5.9,8C765,48.7,773.2,45,782.6,45c12.6,0,22.2,3.7,28.1,12.9c8.5-7.8,17.6-12.9,29.2-12.9
				c21.7,0,34.3,11.1,34.3,41.4v51.9h-28.1V89.6c0-14-5.7-18.1-14.8-18.1c-5.3,0-9.8,1.4-14.8,4.6c0.4,3.2,0.5,6.5,0.5,10.3v51.9
				H789V89.6c0-14-5.7-18.1-14.9-18.1C768.9,71.5,764.6,72.8,759.8,75.9L759.8,75.9z M661.8,83.7h36.1c-2-11.9-8.4-17.5-18-17.5
				C671.8,66.2,663.9,71,661.8,83.7L661.8,83.7z M681.9,140c-27,0-48.7-13.3-48.7-48.3c0-32.7,21-46.9,45.2-46.9
				c29.2,0,42.2,20.4,42.2,52.4h-58.9c2,15.8,11.7,20.4,24.7,20.4c10.9,0,20.5-2.5,28.5-7.3l-3.9,22.3
				C703.6,137.7,694.4,140,681.9,140L681.9,140z M578.2,116.5c6.4,0,11.2-1.1,16.2-4.8V72c-4.4-2.7-8.9-3.9-15.3-3.9
				c-13.7,0-21.5,9.2-21.5,24.6C557.6,107.8,565.6,116.5,578.2,116.5L578.2,116.5z M599.9,131.5c-7.3,5.5-15.7,8.9-27.6,8.9
				c-25.1,0-43.2-15.4-43.2-47.1c0-31.5,20.8-48.5,47.5-48.5c6.2,0,12.3,0.9,17.8,3V9.1h28.1v129.1h-17.8L599.9,131.5z M410,84.3
				V16.7h29.2v67c0,24.1,10.9,29,25.8,29c16.2,0,24.5-7.1,24.5-29v-67h29.4v67.5c0,39.8-17.4,56.5-55.3,56.5
				C428.4,140.7,410,126.4,410,84.3L410,84.3z"/>
			<path id="Fill-7" class="st1" d="M428.4,217.4v37.8h-7.7v-37.8h-6.1v-6.1h6.1v-6.1c0-14.3,5.8-18.3,14.5-18.3
				c2.2,0,4.3,0.3,6.2,1l0.6,7.5c-1.7-0.7-3.5-1-5.2-1c-5.9,0-8.3,3.2-8.3,10.6v6.4H439v6.1H428.4z"/>
			<path id="Fill-9" class="st1" d="M475,232.3c0-10-5.2-15.8-12.6-15.8c-7.5,0-12.6,5.9-12.6,15.8c0,10.4,5.4,16,12.6,16
				C470,248.3,475,242.6,475,232.3 M441.9,232.6c0-13.6,7.9-22.9,20.5-22.9c13.1,0,20.5,8.5,20.5,22.7c0,13.7-8,22.8-20.7,22.8
				C449.4,255.2,441.9,246.9,441.9,232.6"/>
			<path id="Fill-11" class="st1" d="M499.5,223.8v31.4h-7.5v-44.5h5.9l1.5,6.6c3.7-5,9-7.7,15.5-7.7v7.9
				C509.6,217.5,503.6,220.1,499.5,223.8"/>
			<path id="Fill-13" class="st1" d="M559.9,248.2c10,0,14.6-2.9,14.6-11.2c0-7.7-5.8-10.2-15.4-10.2h-9v21.4H559.9z M559.1,219.8
				c9,0,13.1-2.7,13.1-10.6c0-7.6-4.8-10.8-14.1-10.8h-8v21.4H559.1z M561.2,255.2h-19v-63.8h17.6c12.1,0,20.6,4.8,20.6,16.4
				c0,6.9-2.4,12.5-10.9,15.3c10.5,1.7,13.7,6.9,13.7,14.7C583.2,250.6,574.2,255.2,561.2,255.2L561.2,255.2z"/>
			<path id="Fill-15" class="st1" d="M625.4,250.1c-3.6,3.4-7.6,5.1-12.3,5.1c-10.3,0-16.2-5.5-16.2-18.4v-27.2h8.1v25.9
				c0,9.1,3.4,11.8,9.4,11.8c3.8,0,7.1-1.2,10.9-4.3v-33.4h8.1v44.5h-6.2L625.4,250.1z"/>
			<path id="Fill-17" class="st1" d="M643.7,252l-1.3-8.2c3.9,2.8,9.4,4.4,15,4.4c5.6,0,9-1.7,9-6.3c0-3-1.3-4.4-7.6-6.3l-2.8-0.8
				c-8.2-2.6-12-5.5-12-12.7c0-8.1,5.5-12.5,15.4-12.5c4.4,0,8.9,1,12,2.6l1.1,7.6c-3.5-1.9-8.6-3.3-12.7-3.3c-5.5,0-7.9,2-7.9,5.4
				c0,3,1.4,4.5,6.4,6l2.6,0.8c10.3,3,13.3,6,13.3,12.7c0,9.1-6.1,13.8-16.5,13.8C652.1,255.2,646.8,254,643.7,252"/>
			<path id="Fill-19" class="st1" d="M679.7,255.2h7.5v-42.7h-7.5V255.2z M678.9,200.8h9.1v-9.4h-9.1V200.8z"/>
			<path id="Fill-21" class="st1" d="M705.2,221.8v33.4h-8.1v-44.5h6.2l1.7,4.1c3.6-3.4,7.5-5.1,12.3-5.1c10.3,0,16.2,5.5,16.2,18.4
				v27.2h-8.1v-25.9c0-9.1-3.4-11.8-9.4-11.8C712.3,217.5,708.9,218.7,705.2,221.8"/>
			<path id="Fill-22" class="st1" d="M750.5,227.7h22c-1-7.6-4.5-11.4-10.6-11.4C756.7,216.4,751.7,219.5,750.5,227.7 M762.5,255.2
				c-10.9,0-19.8-6.3-19.8-22.9c0-15.3,8.8-22.7,19-22.7c11.9,0,17.4,8.3,17.4,24.2h-28.8c0.6,11.1,6.3,14.3,12.9,14.3
				c5.3,0,9.5-1.4,13.2-4l-1.1,8C772,254.2,768.1,255.2,762.5,255.2"/>
			<path id="Fill-23" class="st1" d="M785,252l-1.3-8.2c3.9,2.8,9.4,4.4,15,4.4c5.6,0,9-1.7,9-6.3c0-3-1.3-4.4-7.6-6.3l-2.8-0.8
				c-8.2-2.6-12-5.5-12-12.7c0-8.1,5.5-12.5,15.4-12.5c4.4,0,8.9,1,12,2.6l1.1,7.6c-3.5-1.9-8.6-3.3-12.7-3.3c-5.5,0-7.9,2-7.9,5.4
				c0,3,1.4,4.5,6.4,6l2.6,0.8c10.3,3,13.3,6,13.3,12.7c0,9.1-6.1,13.8-16.5,13.8C793.4,255.2,788,254,785,252"/>
			<path id="Fill-24" class="st1" d="M821.4,252l-1.3-8.2c3.9,2.8,9.4,4.4,15,4.4c5.6,0,9-1.7,9-6.3c0-3-1.3-4.4-7.6-6.3l-2.8-0.8
				c-8.2-2.6-12-5.5-12-12.7c0-8.1,5.5-12.5,15.4-12.5c4.4,0,8.9,1,12,2.6l1.1,7.6c-3.5-1.9-8.6-3.3-12.7-3.3c-5.5,0-7.9,2-7.9,5.4
				c0,3,1.4,4.5,6.4,6l2.6,0.8c10.3,3,13.3,6,13.3,12.7c0,9.1-6.1,13.8-16.5,13.8C829.8,255.2,824.5,254,821.4,252"/>
		</g>
	</g>
</g>
</svg>
